<mxfile host="65bd71144e">
    <diagram id="LXhlzKA2DTauktz912tX" name="Page-1">
        <mxGraphModel dx="2486" dy="588" grid="1" gridSize="10" guides="1" tooltips="1" connect="1" arrows="1" fold="1" page="1" pageScale="1" pageWidth="850" pageHeight="1100" math="0" shadow="0">
            <root>
                <mxCell id="0"/>
                <mxCell id="1" parent="0"/>
                <mxCell id="3" value="" style="rounded=0;whiteSpace=wrap;html=1;" parent="1" vertex="1">
                    <mxGeometry x="10" y="30" width="910" height="950" as="geometry"/>
                </mxCell>
                <mxCell id="4" value="Provenance Graph" style="text;html=1;strokeColor=none;fillColor=none;align=center;verticalAlign=middle;whiteSpace=wrap;rounded=0;fontStyle=1;fontSize=15;" parent="1" vertex="1">
                    <mxGeometry x="410" y="40" width="180" height="20" as="geometry"/>
                </mxCell>
                <mxCell id="9" value="prov:Activity" style="swimlane;fontStyle=0;childLayout=stackLayout;horizontal=1;startSize=26;fillColor=none;horizontalStack=0;resizeParent=1;resizeParentMax=0;resizeLast=0;collapsible=1;marginBottom=0;fontSize=15;" parent="1" vertex="1">
                    <mxGeometry x="250" y="80" width="160" height="52" as="geometry"/>
                </mxCell>
                <mxCell id="13" value="prov:Usage" style="swimlane;fontStyle=0;childLayout=stackLayout;horizontal=1;startSize=26;fillColor=none;horizontalStack=0;resizeParent=1;resizeParentMax=0;resizeLast=0;collapsible=1;marginBottom=0;fontSize=15;" parent="1" vertex="1">
                    <mxGeometry x="70" y="270" width="140" height="52" as="geometry"/>
                </mxCell>
                <mxCell id="17" value="prov:Generation" style="swimlane;fontStyle=0;childLayout=stackLayout;horizontal=1;startSize=26;fillColor=none;horizontalStack=0;resizeParent=1;resizeParentMax=0;resizeLast=0;collapsible=1;marginBottom=0;fontSize=15;" parent="1" vertex="1">
                    <mxGeometry x="260" y="270" width="140" height="52" as="geometry"/>
                </mxCell>
                <mxCell id="18" value="renku:ParameterValue" style="swimlane;fontStyle=0;childLayout=stackLayout;horizontal=1;startSize=26;fillColor=none;horizontalStack=0;resizeParent=1;resizeParentMax=0;resizeLast=0;collapsible=1;marginBottom=0;fontSize=15;" parent="1" vertex="1">
                    <mxGeometry x="450" y="270" width="190" height="52" as="geometry"/>
                </mxCell>
                <mxCell id="19" value="" style="endArrow=classic;html=1;fontSize=15;exitX=0.25;exitY=1;exitDx=0;exitDy=0;entryX=0.5;entryY=0;entryDx=0;entryDy=0;" parent="1" source="9" target="13" edge="1">
                    <mxGeometry width="50" height="50" relative="1" as="geometry">
                        <mxPoint x="780" y="10" as="sourcePoint"/>
                        <mxPoint x="830" y="-40" as="targetPoint"/>
                    </mxGeometry>
                </mxCell>
                <mxCell id="22" value="prov:qualifiedUsage" style="edgeLabel;html=1;align=center;verticalAlign=middle;resizable=0;points=[];fontSize=15;" parent="19" vertex="1" connectable="0">
                    <mxGeometry x="0.2519" y="1" relative="1" as="geometry">
                        <mxPoint as="offset"/>
                    </mxGeometry>
                </mxCell>
                <mxCell id="20" value="" style="endArrow=classic;html=1;fontSize=15;entryX=0.5;entryY=1;entryDx=0;entryDy=0;" parent="1" source="17" target="9" edge="1">
                    <mxGeometry width="50" height="50" relative="1" as="geometry">
                        <mxPoint x="630" y="-140" as="sourcePoint"/>
                        <mxPoint x="680" y="-190" as="targetPoint"/>
                    </mxGeometry>
                </mxCell>
                <mxCell id="23" value="prov:activity" style="edgeLabel;html=1;align=center;verticalAlign=middle;resizable=0;points=[];fontSize=15;" parent="20" vertex="1" connectable="0">
                    <mxGeometry x="-0.2135" y="1" relative="1" as="geometry">
                        <mxPoint as="offset"/>
                    </mxGeometry>
                </mxCell>
                <mxCell id="21" value="" style="endArrow=classic;html=1;fontSize=15;exitX=0.75;exitY=1;exitDx=0;exitDy=0;entryX=0.5;entryY=0;entryDx=0;entryDy=0;" parent="1" source="9" target="18" edge="1">
                    <mxGeometry width="50" height="50" relative="1" as="geometry">
                        <mxPoint x="610" y="-140" as="sourcePoint"/>
                        <mxPoint x="660" y="-190" as="targetPoint"/>
                    </mxGeometry>
                </mxCell>
                <mxCell id="24" value="renku:parameter" style="edgeLabel;html=1;align=center;verticalAlign=middle;resizable=0;points=[];fontSize=15;" parent="21" vertex="1" connectable="0">
                    <mxGeometry x="0.3659" y="-1" relative="1" as="geometry">
                        <mxPoint as="offset"/>
                    </mxGeometry>
                </mxCell>
                <mxCell id="25" value="renku:FileParameterValue" style="swimlane;fontStyle=0;childLayout=stackLayout;horizontal=1;startSize=26;fillColor=none;horizontalStack=0;resizeParent=1;resizeParentMax=0;resizeLast=0;collapsible=1;marginBottom=0;fontSize=15;" parent="1" vertex="1">
                    <mxGeometry x="130" y="420" width="270" height="52" as="geometry"/>
                </mxCell>
                <mxCell id="26" value="prov:atLocation" style="text;strokeColor=none;fillColor=none;align=left;verticalAlign=top;spacingLeft=4;spacingRight=4;overflow=hidden;rotatable=0;points=[[0,0.5],[1,0.5]];portConstraint=eastwest;" parent="25" vertex="1">
                    <mxGeometry y="26" width="270" height="26" as="geometry"/>
                </mxCell>
                <mxCell id="29" value="schema:name" style="text;strokeColor=none;fillColor=none;align=left;verticalAlign=top;spacingLeft=4;spacingRight=4;overflow=hidden;rotatable=0;points=[[0,0.5],[1,0.5]];portConstraint=eastwest;" parent="1" vertex="1">
                    <mxGeometry x="450" y="296" width="190" height="26" as="geometry"/>
                </mxCell>
                <mxCell id="98" style="edgeStyle=orthogonalEdgeStyle;rounded=0;orthogonalLoop=1;jettySize=auto;html=1;entryX=0.75;entryY=1;entryDx=0;entryDy=0;startArrow=none;startFill=0;endArrow=classic;endFill=1;fontColor=#FFFFFF;" parent="1" source="30" target="84" edge="1">
                    <mxGeometry relative="1" as="geometry">
                        <Array as="points">
                            <mxPoint x="565" y="820"/>
                            <mxPoint x="1998" y="820"/>
                        </Array>
                    </mxGeometry>
                </mxCell>
                <mxCell id="30" value="renku:VariableParameterValue" style="swimlane;fontStyle=0;childLayout=stackLayout;horizontal=1;startSize=26;fillColor=none;horizontalStack=0;resizeParent=1;resizeParentMax=0;resizeLast=0;collapsible=1;marginBottom=0;fontSize=15;" parent="1" vertex="1">
                    <mxGeometry x="430" y="420" width="270" height="52" as="geometry"/>
                </mxCell>
                <mxCell id="31" value="schema:value" style="text;strokeColor=none;fillColor=none;align=left;verticalAlign=top;spacingLeft=4;spacingRight=4;overflow=hidden;rotatable=0;points=[[0,0.5],[1,0.5]];portConstraint=eastwest;" parent="30" vertex="1">
                    <mxGeometry y="26" width="270" height="26" as="geometry"/>
                </mxCell>
                <mxCell id="32" value="" style="rounded=0;whiteSpace=wrap;html=1;fontSize=15;" parent="1" vertex="1">
                    <mxGeometry x="950" y="30" width="1220" height="950" as="geometry"/>
                </mxCell>
                <mxCell id="33" value="Dependency Graph" style="text;html=1;strokeColor=none;fillColor=none;align=center;verticalAlign=middle;whiteSpace=wrap;rounded=0;fontStyle=1;fontSize=15;" parent="1" vertex="1">
                    <mxGeometry x="1290" y="40" width="180" height="20" as="geometry"/>
                </mxCell>
                <mxCell id="63" style="rounded=0;orthogonalLoop=1;jettySize=auto;html=1;endArrow=classic;endFill=1;fontSize=15;" parent="1" source="34" target="42" edge="1">
                    <mxGeometry relative="1" as="geometry"/>
                </mxCell>
                <mxCell id="89" value="renku:hasInputs" style="edgeLabel;html=1;align=center;verticalAlign=middle;resizable=0;points=[];fontSize=15;" parent="63" vertex="1" connectable="0">
                    <mxGeometry x="0.4248" y="1" relative="1" as="geometry">
                        <mxPoint x="30.39" y="-13.9" as="offset"/>
                    </mxGeometry>
                </mxCell>
                <mxCell id="64" style="edgeStyle=none;rounded=0;orthogonalLoop=1;jettySize=auto;html=1;entryX=0.5;entryY=0;entryDx=0;entryDy=0;endArrow=classic;endFill=1;fontSize=15;" parent="1" source="34" target="46" edge="1">
                    <mxGeometry relative="1" as="geometry"/>
                </mxCell>
                <mxCell id="90" value="renku:hasOutputs" style="edgeLabel;html=1;align=center;verticalAlign=middle;resizable=0;points=[];fontSize=15;" parent="64" vertex="1" connectable="0">
                    <mxGeometry x="-0.3846" y="-1" relative="1" as="geometry">
                        <mxPoint x="1" y="8" as="offset"/>
                    </mxGeometry>
                </mxCell>
                <mxCell id="65" style="edgeStyle=none;rounded=0;orthogonalLoop=1;jettySize=auto;html=1;entryX=0.5;entryY=0;entryDx=0;entryDy=0;endArrow=classic;endFill=1;fontSize=15;" parent="1" source="34" target="50" edge="1">
                    <mxGeometry relative="1" as="geometry"/>
                </mxCell>
                <mxCell id="91" value="renku:hasArguments" style="edgeLabel;html=1;align=center;verticalAlign=middle;resizable=0;points=[];fontSize=15;" parent="65" vertex="1" connectable="0">
                    <mxGeometry x="-0.2889" y="-2" relative="1" as="geometry">
                        <mxPoint x="14.45" y="11.72" as="offset"/>
                    </mxGeometry>
                </mxCell>
                <mxCell id="34" value="renku:Plan" style="swimlane;fontStyle=0;childLayout=stackLayout;horizontal=1;startSize=26;fillColor=none;horizontalStack=0;resizeParent=1;resizeParentMax=0;resizeLast=0;collapsible=1;marginBottom=0;fontSize=15;" parent="1" vertex="1">
                    <mxGeometry x="1417.5" y="232" width="220" height="154" as="geometry"/>
                </mxCell>
                <mxCell id="54" value="schema:name" style="text;strokeColor=none;fillColor=none;align=left;verticalAlign=top;spacingLeft=4;spacingRight=4;overflow=hidden;rotatable=0;points=[[0,0.5],[1,0.5]];portConstraint=eastwest;" parent="34" vertex="1">
                    <mxGeometry y="26" width="220" height="24" as="geometry"/>
                </mxCell>
                <mxCell id="43" value="schema:description" style="text;strokeColor=none;fillColor=none;align=left;verticalAlign=top;spacingLeft=4;spacingRight=4;overflow=hidden;rotatable=0;points=[[0,0.5],[1,0.5]];portConstraint=eastwest;" parent="34" vertex="1">
                    <mxGeometry y="50" width="220" height="26" as="geometry"/>
                </mxCell>
                <mxCell id="66" value="schema:keywords" style="text;strokeColor=none;fillColor=none;align=left;verticalAlign=top;spacingLeft=4;spacingRight=4;overflow=hidden;rotatable=0;points=[[0,0.5],[1,0.5]];portConstraint=eastwest;" parent="34" vertex="1">
                    <mxGeometry y="76" width="220" height="26" as="geometry"/>
                </mxCell>
                <mxCell id="67" value="schema:programmingLanguage" style="text;strokeColor=none;fillColor=none;align=left;verticalAlign=top;spacingLeft=4;spacingRight=4;overflow=hidden;rotatable=0;points=[[0,0.5],[1,0.5]];portConstraint=eastwest;" parent="34" vertex="1">
                    <mxGeometry y="102" width="220" height="26" as="geometry"/>
                </mxCell>
                <mxCell id="104" value="prov:invalidatedAtTime" style="text;align=left;verticalAlign=top;spacingLeft=4;spacingRight=4;overflow=hidden;rotatable=0;points=[[0,0.5],[1,0.5]];portConstraint=eastwest;fontColor=#F0F0F0;" parent="34" vertex="1">
                    <mxGeometry y="128" width="220" height="26" as="geometry"/>
                </mxCell>
                <mxCell id="35" value="" style="endArrow=block;html=1;fontSize=15;exitX=0.5;exitY=0;exitDx=0;exitDy=0;entryX=0.25;entryY=1;entryDx=0;entryDy=0;endFill=0;" parent="1" source="25" target="18" edge="1">
                    <mxGeometry width="50" height="50" relative="1" as="geometry">
                        <mxPoint x="620" y="-120" as="sourcePoint"/>
                        <mxPoint x="460" y="10" as="targetPoint"/>
                    </mxGeometry>
                </mxCell>
                <mxCell id="36" value="" style="endArrow=block;html=1;fontSize=15;entryX=0.527;entryY=1.066;entryDx=0;entryDy=0;entryPerimeter=0;endFill=0;" parent="1" source="30" target="29" edge="1">
                    <mxGeometry width="50" height="50" relative="1" as="geometry">
                        <mxPoint x="480" y="20" as="sourcePoint"/>
                        <mxPoint x="530" y="-30" as="targetPoint"/>
                    </mxGeometry>
                </mxCell>
                <mxCell id="37" value="prov:Association" style="swimlane;fontStyle=0;childLayout=stackLayout;horizontal=1;startSize=26;fillColor=none;horizontalStack=0;resizeParent=1;resizeParentMax=0;resizeLast=0;collapsible=1;marginBottom=0;fontSize=15;" parent="1" vertex="1">
                    <mxGeometry x="720" y="80" width="160" height="52" as="geometry"/>
                </mxCell>
                <mxCell id="38" value="" style="endArrow=classic;html=1;fontSize=15;exitX=1;exitY=0.5;exitDx=0;exitDy=0;entryX=0;entryY=0.5;entryDx=0;entryDy=0;" parent="1" source="9" target="37" edge="1">
                    <mxGeometry width="50" height="50" relative="1" as="geometry">
                        <mxPoint x="490" y="10" as="sourcePoint"/>
                        <mxPoint x="540" y="-40" as="targetPoint"/>
                    </mxGeometry>
                </mxCell>
                <mxCell id="39" value="prov:qualifiedAssociation" style="edgeLabel;html=1;align=center;verticalAlign=middle;resizable=0;points=[];fontSize=15;" parent="38" vertex="1" connectable="0">
                    <mxGeometry x="-0.1429" y="-1" relative="1" as="geometry">
                        <mxPoint as="offset"/>
                    </mxGeometry>
                </mxCell>
                <mxCell id="40" value="" style="endArrow=classic;html=1;fontSize=15;exitX=1;exitY=0.5;exitDx=0;exitDy=0;" parent="1" source="37" target="77" edge="1">
                    <mxGeometry width="50" height="50" relative="1" as="geometry">
                        <mxPoint x="1130" y="10" as="sourcePoint"/>
                        <mxPoint x="1180" y="-40" as="targetPoint"/>
                    </mxGeometry>
                </mxCell>
                <mxCell id="41" value="prov:hadPlan" style="edgeLabel;html=1;align=center;verticalAlign=middle;resizable=0;points=[];fontSize=15;" parent="40" vertex="1" connectable="0">
                    <mxGeometry x="0.3035" relative="1" as="geometry">
                        <mxPoint as="offset"/>
                    </mxGeometry>
                </mxCell>
                <mxCell id="42" value="renku:CommandInput" style="swimlane;fontStyle=0;childLayout=stackLayout;horizontal=1;startSize=26;fillColor=none;horizontalStack=0;resizeParent=1;resizeParentMax=0;resizeLast=0;collapsible=1;marginBottom=0;fontSize=15;" parent="1" vertex="1">
                    <mxGeometry x="1190" y="438" width="205" height="74" as="geometry"/>
                </mxCell>
                <mxCell id="68" value="schema:encodingFormat" style="text;strokeColor=none;fillColor=none;align=left;verticalAlign=top;spacingLeft=4;spacingRight=4;overflow=hidden;rotatable=0;points=[[0,0.5],[1,0.5]];portConstraint=eastwest;" parent="42" vertex="1">
                    <mxGeometry y="26" width="205" height="24" as="geometry"/>
                </mxCell>
                <mxCell id="99" value="renku:isTemporary" style="text;strokeColor=none;fillColor=none;align=left;verticalAlign=top;spacingLeft=4;spacingRight=4;overflow=hidden;rotatable=0;points=[[0,0.5],[1,0.5]];portConstraint=eastwest;" parent="42" vertex="1">
                    <mxGeometry y="50" width="205" height="24" as="geometry"/>
                </mxCell>
                <mxCell id="46" value="renku:CommandOutput" style="swimlane;fontStyle=0;childLayout=stackLayout;horizontal=1;startSize=26;fillColor=none;horizontalStack=0;resizeParent=1;resizeParentMax=0;resizeLast=0;collapsible=1;marginBottom=0;fontSize=15;" parent="1" vertex="1">
                    <mxGeometry x="1425" y="438" width="205" height="74" as="geometry"/>
                </mxCell>
                <mxCell id="69" value="schema:encodingFormat" style="text;strokeColor=none;fillColor=none;align=left;verticalAlign=top;spacingLeft=4;spacingRight=4;overflow=hidden;rotatable=0;points=[[0,0.5],[1,0.5]];portConstraint=eastwest;" parent="46" vertex="1">
                    <mxGeometry y="26" width="205" height="24" as="geometry"/>
                </mxCell>
                <mxCell id="100" value="renku:isTemporary" style="text;strokeColor=none;fillColor=none;align=left;verticalAlign=top;spacingLeft=4;spacingRight=4;overflow=hidden;rotatable=0;points=[[0,0.5],[1,0.5]];portConstraint=eastwest;" parent="46" vertex="1">
                    <mxGeometry y="50" width="205" height="24" as="geometry"/>
                </mxCell>
                <mxCell id="50" value="renku:CommandParameter" style="swimlane;fontStyle=0;childLayout=stackLayout;horizontal=1;startSize=26;fillColor=none;horizontalStack=0;resizeParent=1;resizeParentMax=0;resizeLast=0;collapsible=1;marginBottom=0;fontSize=15;" parent="1" vertex="1">
                    <mxGeometry x="1665" y="438" width="220" height="52" as="geometry"/>
                </mxCell>
                <mxCell id="108" style="edgeStyle=orthogonalEdgeStyle;rounded=0;jumpStyle=arc;orthogonalLoop=1;jettySize=auto;html=1;entryX=0.75;entryY=1;entryDx=0;entryDy=0;" edge="1" parent="1" source="55" target="105">
                    <mxGeometry relative="1" as="geometry">
                        <Array as="points">
                            <mxPoint x="2128" y="740"/>
                        </Array>
                    </mxGeometry>
                </mxCell>
                <mxCell id="109" value="renku:linkSource" style="edgeLabel;html=1;align=center;verticalAlign=middle;resizable=0;points=[];fontColor=#66FF66;" vertex="1" connectable="0" parent="108">
                    <mxGeometry x="-0.1097" y="-1" relative="1" as="geometry">
                        <mxPoint as="offset"/>
                    </mxGeometry>
                </mxCell>
                <mxCell id="55" value="renku:CommandParameterBase" style="swimlane;fontStyle=0;childLayout=stackLayout;horizontal=1;startSize=26;fillColor=none;horizontalStack=0;resizeParent=1;resizeParentMax=0;resizeLast=0;collapsible=1;marginBottom=0;fontSize=15;" parent="1" vertex="1">
                    <mxGeometry x="1415" y="648" width="225" height="104" as="geometry"/>
                </mxCell>
                <mxCell id="56" value="schema:name" style="text;strokeColor=none;fillColor=none;align=left;verticalAlign=top;spacingLeft=4;spacingRight=4;overflow=hidden;rotatable=0;points=[[0,0.5],[1,0.5]];portConstraint=eastwest;" parent="55" vertex="1">
                    <mxGeometry y="26" width="225" height="26" as="geometry"/>
                </mxCell>
                <mxCell id="70" value="schema:description" style="text;strokeColor=none;fillColor=none;align=left;verticalAlign=top;spacingLeft=4;spacingRight=4;overflow=hidden;rotatable=0;points=[[0,0.5],[1,0.5]];portConstraint=eastwest;" parent="55" vertex="1">
                    <mxGeometry y="52" width="225" height="26" as="geometry"/>
                </mxCell>
                <mxCell id="57" value="schema:defaultValue" style="text;strokeColor=none;fillColor=none;align=left;verticalAlign=top;spacingLeft=4;spacingRight=4;overflow=hidden;rotatable=0;points=[[0,0.5],[1,0.5]];portConstraint=eastwest;" parent="55" vertex="1">
                    <mxGeometry y="78" width="225" height="26" as="geometry"/>
                </mxCell>
                <mxCell id="58" value="" style="endArrow=block;html=1;fontSize=15;exitX=0.5;exitY=1;exitDx=0;exitDy=0;entryX=0.25;entryY=0;entryDx=0;entryDy=0;endFill=0;" parent="1" source="42" target="55" edge="1">
                    <mxGeometry width="50" height="50" relative="1" as="geometry">
                        <mxPoint x="1217.5" y="258" as="sourcePoint"/>
                        <mxPoint x="1267.5" y="208" as="targetPoint"/>
                    </mxGeometry>
                </mxCell>
                <mxCell id="59" value="" style="endArrow=block;html=1;fontSize=15;exitX=0.5;exitY=1;exitDx=0;exitDy=0;entryX=0.5;entryY=0;entryDx=0;entryDy=0;endFill=0;" parent="1" source="46" target="55" edge="1">
                    <mxGeometry width="50" height="50" relative="1" as="geometry">
                        <mxPoint x="1327.5" y="238" as="sourcePoint"/>
                        <mxPoint x="1377.5" y="188" as="targetPoint"/>
                    </mxGeometry>
                </mxCell>
                <mxCell id="60" value="" style="endArrow=block;html=1;fontSize=15;exitX=0.5;exitY=1;exitDx=0;exitDy=0;entryX=0.75;entryY=0;entryDx=0;entryDy=0;endFill=0;" parent="1" source="50" target="55" edge="1">
                    <mxGeometry width="50" height="50" relative="1" as="geometry">
                        <mxPoint x="1407.5" y="238" as="sourcePoint"/>
                        <mxPoint x="1457.5" y="188" as="targetPoint"/>
                    </mxGeometry>
                </mxCell>
                <mxCell id="71" style="edgeStyle=orthogonalEdgeStyle;rounded=0;orthogonalLoop=1;jettySize=auto;html=1;endArrow=classic;endFill=1;fontSize=15;" parent="1" source="25" target="68" edge="1">
                    <mxGeometry relative="1" as="geometry">
                        <Array as="points">
                            <mxPoint x="265" y="550"/>
                            <mxPoint x="1135" y="550"/>
                        </Array>
                    </mxGeometry>
                </mxCell>
                <mxCell id="73" style="edgeStyle=orthogonalEdgeStyle;rounded=0;orthogonalLoop=1;jettySize=auto;html=1;endArrow=classic;endFill=1;fontSize=15;jumpStyle=arc;" parent="1" source="25" edge="1">
                    <mxGeometry relative="1" as="geometry">
                        <Array as="points">
                            <mxPoint x="265" y="550"/>
                            <mxPoint x="1478" y="550"/>
                        </Array>
                        <mxPoint x="1477" y="520" as="targetPoint"/>
                    </mxGeometry>
                </mxCell>
                <mxCell id="74" value="schema:valueReference" style="edgeLabel;html=1;align=center;verticalAlign=middle;resizable=0;points=[];fontSize=15;" parent="73" vertex="1" connectable="0">
                    <mxGeometry x="-0.1678" relative="1" as="geometry">
                        <mxPoint as="offset"/>
                    </mxGeometry>
                </mxCell>
                <mxCell id="75" style="edgeStyle=orthogonalEdgeStyle;rounded=0;orthogonalLoop=1;jettySize=auto;html=1;entryX=0.5;entryY=1;entryDx=0;entryDy=0;endArrow=classic;endFill=1;fontSize=15;jumpStyle=arc;" parent="1" source="30" target="50" edge="1">
                    <mxGeometry relative="1" as="geometry">
                        <Array as="points">
                            <mxPoint x="565" y="610"/>
                            <mxPoint x="1775" y="610"/>
                        </Array>
                    </mxGeometry>
                </mxCell>
                <mxCell id="76" value="schema:valueReference" style="edgeLabel;html=1;align=center;verticalAlign=middle;resizable=0;points=[];fontSize=15;" parent="75" vertex="1" connectable="0">
                    <mxGeometry x="-0.3004" relative="1" as="geometry">
                        <mxPoint as="offset"/>
                    </mxGeometry>
                </mxCell>
                <mxCell id="82" style="edgeStyle=orthogonalEdgeStyle;rounded=0;orthogonalLoop=1;jettySize=auto;html=1;" parent="1" source="77" target="34" edge="1">
                    <mxGeometry relative="1" as="geometry">
                        <Array as="points">
                            <mxPoint x="1528" y="190"/>
                        </Array>
                    </mxGeometry>
                </mxCell>
                <mxCell id="83" value="renku:hasSubprocess" style="edgeLabel;html=1;align=center;verticalAlign=middle;resizable=0;points=[];fontSize=15;" parent="82" vertex="1" connectable="0">
                    <mxGeometry x="-0.1995" y="-3" relative="1" as="geometry">
                        <mxPoint x="79.5" y="17" as="offset"/>
                    </mxGeometry>
                </mxCell>
                <mxCell id="92" style="edgeStyle=orthogonalEdgeStyle;rounded=0;orthogonalLoop=1;jettySize=auto;html=1;entryX=0.5;entryY=0;entryDx=0;entryDy=0;startArrow=none;startFill=0;endArrow=classic;endFill=1;" parent="1" source="77" target="84" edge="1">
                    <mxGeometry relative="1" as="geometry"/>
                </mxCell>
                <mxCell id="93" value="renku:hasMapping" style="edgeLabel;html=1;align=center;verticalAlign=middle;resizable=0;points=[];fontColor=#0FF007;fontSize=15;" parent="92" vertex="1" connectable="0">
                    <mxGeometry x="0.1538" y="1" relative="1" as="geometry">
                        <mxPoint x="-1" y="62" as="offset"/>
                    </mxGeometry>
                </mxCell>
                <mxCell id="111" style="edgeStyle=orthogonalEdgeStyle;rounded=0;jumpStyle=arc;orthogonalLoop=1;jettySize=auto;html=1;entryX=0.5;entryY=0;entryDx=0;entryDy=0;fontColor=#66FF66;" edge="1" parent="1" source="77" target="105">
                    <mxGeometry relative="1" as="geometry">
                        <Array as="points">
                            <mxPoint x="2075" y="120"/>
                        </Array>
                    </mxGeometry>
                </mxCell>
                <mxCell id="112" value="renku:workflowLinks" style="edgeLabel;html=1;align=center;verticalAlign=middle;resizable=0;points=[];fontColor=#66FF66;" vertex="1" connectable="0" parent="111">
                    <mxGeometry x="-0.0523" y="-2" relative="1" as="geometry">
                        <mxPoint as="offset"/>
                    </mxGeometry>
                </mxCell>
                <mxCell id="77" value="renku:CompositePlan" style="swimlane;fontStyle=0;childLayout=stackLayout;horizontal=1;startSize=26;fillColor=#60a917;horizontalStack=0;resizeParent=1;resizeParentMax=0;resizeLast=0;collapsible=1;marginBottom=0;fontSize=15;strokeColor=#2D7600;fontColor=#ffffff;" parent="1" vertex="1">
                    <mxGeometry x="1130" y="100" width="220" height="128" as="geometry"/>
                </mxCell>
                <mxCell id="78" value="schema:name" style="text;strokeColor=none;fillColor=none;align=left;verticalAlign=top;spacingLeft=4;spacingRight=4;overflow=hidden;rotatable=0;points=[[0,0.5],[1,0.5]];portConstraint=eastwest;" parent="77" vertex="1">
                    <mxGeometry y="26" width="220" height="24" as="geometry"/>
                </mxCell>
                <mxCell id="79" value="schema:description" style="text;strokeColor=none;fillColor=none;align=left;verticalAlign=top;spacingLeft=4;spacingRight=4;overflow=hidden;rotatable=0;points=[[0,0.5],[1,0.5]];portConstraint=eastwest;" parent="77" vertex="1">
                    <mxGeometry y="50" width="220" height="26" as="geometry"/>
                </mxCell>
                <mxCell id="80" value="schema:keywords" style="text;strokeColor=none;fillColor=none;align=left;verticalAlign=top;spacingLeft=4;spacingRight=4;overflow=hidden;rotatable=0;points=[[0,0.5],[1,0.5]];portConstraint=eastwest;" parent="77" vertex="1">
                    <mxGeometry y="76" width="220" height="26" as="geometry"/>
                </mxCell>
                <mxCell id="81" value="schema:programmingLanguage" style="text;strokeColor=none;fillColor=none;align=left;verticalAlign=top;spacingLeft=4;spacingRight=4;overflow=hidden;rotatable=0;points=[[0,0.5],[1,0.5]];portConstraint=eastwest;" parent="77" vertex="1">
                    <mxGeometry y="102" width="220" height="26" as="geometry"/>
                </mxCell>
                <mxCell id="84" value="renku:ParameterMapping" style="swimlane;fontStyle=0;childLayout=stackLayout;horizontal=1;startSize=26;fillColor=#60a917;horizontalStack=0;resizeParent=1;resizeParentMax=0;resizeLast=0;collapsible=1;marginBottom=0;strokeColor=#2D7600;fontColor=#ffffff;" parent="1" vertex="1">
                    <mxGeometry x="1840" y="642" width="210" height="52" as="geometry"/>
                </mxCell>
                <mxCell id="88" style="edgeStyle=orthogonalEdgeStyle;rounded=0;orthogonalLoop=1;jettySize=auto;html=1;entryX=0;entryY=0.5;entryDx=0;entryDy=0;endArrow=none;endFill=0;startArrow=block;startFill=0;" parent="1" source="70" target="84" edge="1">
                    <mxGeometry relative="1" as="geometry"/>
                </mxCell>
                <mxCell id="110" value="renku:mapsTo" style="edgeLabel;html=1;align=center;verticalAlign=middle;resizable=0;points=[];fontColor=#66FF66;" vertex="1" connectable="0" parent="88">
                    <mxGeometry x="0.3878" y="-3" relative="1" as="geometry">
                        <mxPoint as="offset"/>
                    </mxGeometry>
                </mxCell>
                <mxCell id="96" style="edgeStyle=orthogonalEdgeStyle;rounded=0;orthogonalLoop=1;jettySize=auto;html=1;startArrow=none;startFill=0;endArrow=classic;endFill=1;fontColor=#0FF007;entryX=0.75;entryY=1;entryDx=0;entryDy=0;" parent="1" source="25" target="84" edge="1">
                    <mxGeometry relative="1" as="geometry">
                        <mxPoint x="1912" y="700" as="targetPoint"/>
                        <Array as="points">
                            <mxPoint x="265" y="820"/>
                            <mxPoint x="1998" y="820"/>
                        </Array>
                    </mxGeometry>
                </mxCell>
                <mxCell id="97" value="schema:valueReference" style="edgeLabel;html=1;align=center;verticalAlign=middle;resizable=0;points=[];fontSize=15;fontColor=#000000;" parent="96" vertex="1" connectable="0">
                    <mxGeometry x="-0.0367" y="2" relative="1" as="geometry">
                        <mxPoint as="offset"/>
                    </mxGeometry>
                </mxCell>
                <mxCell id="103" value="prov:invalidatedAtTime" style="text;align=left;verticalAlign=top;spacingLeft=4;spacingRight=4;overflow=hidden;rotatable=0;points=[[0,0.5],[1,0.5]];portConstraint=eastwest;" parent="1" vertex="1">
                    <mxGeometry x="250" y="106" width="190" height="26" as="geometry"/>
                </mxCell>
                <mxCell id="106" style="edgeStyle=orthogonalEdgeStyle;rounded=0;orthogonalLoop=1;jettySize=auto;html=1;entryX=1;entryY=0.192;entryDx=0;entryDy=0;entryPerimeter=0;jumpStyle=arc;" edge="1" parent="1" source="105" target="56">
                    <mxGeometry relative="1" as="geometry">
                        <Array as="points">
                            <mxPoint x="2075" y="620"/>
                            <mxPoint x="1680" y="620"/>
                            <mxPoint x="1680" y="679"/>
                        </Array>
                    </mxGeometry>
                </mxCell>
                <mxCell id="107" value="renku:linkSink" style="edgeLabel;html=1;align=center;verticalAlign=middle;resizable=0;points=[];fontColor=#66FF66;" vertex="1" connectable="0" parent="106">
                    <mxGeometry x="-0.0372" y="1" relative="1" as="geometry">
                        <mxPoint as="offset"/>
                    </mxGeometry>
                </mxCell>
                <mxCell id="105" value="renku:ParameterLink" style="swimlane;fontStyle=0;childLayout=stackLayout;horizontal=1;startSize=26;fillColor=#60a917;horizontalStack=0;resizeParent=1;resizeParentMax=0;resizeLast=0;collapsible=1;marginBottom=0;strokeColor=#2D7600;fontColor=#ffffff;" vertex="1" parent="1">
                    <mxGeometry x="1970" y="524" width="210" height="52" as="geometry"/>
                </mxCell>
            </root>
        </mxGraphModel>
    </diagram>
</mxfile>
